# xmcd
#
# Track frame offsets:
#	150
#	20055
#	39697
#	59785
#	80487
#	93157
#	110160
#	125115
#	138560
#	151555
#	165855
#	181820
#	198767
#	217977
#
# Disc length: 3146 seconds
#
# Revision: 1
# Processed by: cddbd v1.5.1PL2 Copyright (c) Steve Scherf et al.
# Submitted via: audiograbber 1.83.01
#
DISCID=bc0c480e
DTITLE=Star Disc - SD071
DYEAR=1900
DGENRE=Country
TTITLE0=Dixie Chicks, The - Goodbye Earl
TTITLE1=Walker, Clay - The Chain Of Love
TTITLE2=McEntire, Reba - I'll Be
TTITLE3=Jackson, Alan - The Blues Man
TTITLE4=Paisley, Brad - Me Neither
TTITLE5=Raye, Collin - Couldn't Last A Moment
TTITLE6=Travis, Randy - Where Can I Surrender
TTITLE7=Sawyer Brown - 800 Pound Jesus
TTITLE8=Blackhawk - I Need You All The Time
TTITLE9=Reeves, Julie - What I Need
TTITLE10=Brock, Chad - Yes
TTITLE11=Hayes, Wade - Up North
TTITLE12=Urban, Keith - You're Everything
TTITLE13=Davidson, Clay - Unconditional
EXTD=MediaType: Karaoke CD+G Producer: StarDisc
EXTT0=
EXTT1=
EXTT2=
EXTT3=
EXTT4=
EXTT5=
EXTT6=
EXTT7=
EXTT8=
EXTT9=
EXTT10=
EXTT11=
EXTT12=
EXTT13=
PLAYORDER=
